<svg width="221" height="221" viewBox="0 0 221 221" fill="none" xmlns="http://www.w3.org/2000/svg">
<g filter="url(#filter0_d_1437_5936)">
<path d="M159.37 29.006C166.304 27.0297 173.041 32.6825 172.298 39.8539C171.724 45.4044 175.721 50.3844 181.264 51.0248C188.426 51.8523 192.487 59.6528 189.056 65.9944C186.402 70.9024 188.189 77.0329 193.065 79.7459C199.365 83.2512 200.131 92.0119 194.536 96.558C190.205 100.077 189.509 106.424 192.976 110.797C197.455 116.446 194.811 124.833 187.901 126.892C182.554 128.485 179.482 134.084 181.012 139.45C182.988 146.384 177.335 153.12 170.164 152.378C164.613 151.804 159.633 155.8 158.993 161.344C158.165 168.506 150.365 172.566 144.023 169.136C139.115 166.481 132.985 168.268 130.272 173.144C126.767 179.445 118.006 180.211 113.46 174.615C109.941 170.284 103.594 169.589 99.2211 173.056C93.5716 177.535 85.1845 174.891 83.1259 167.981C81.5326 162.633 75.9342 159.562 70.5678 161.092C63.6342 163.068 56.8975 157.415 57.6398 150.244C58.2143 144.693 54.2174 139.713 48.6742 139.073C41.512 138.245 37.4513 130.445 40.8815 124.103C43.5364 119.195 41.7495 113.065 36.8733 110.352C30.573 106.846 29.8066 98.0857 35.4025 93.5395C39.7335 90.021 40.4286 83.6734 36.9619 79.3009C32.4826 73.6514 35.127 65.2642 42.0367 63.2056C47.3845 61.6123 50.4559 56.0139 48.9262 50.6476C46.9499 43.714 52.6027 36.9772 59.7742 37.7195C65.3246 38.2941 70.3046 34.2972 70.9451 28.754C71.7725 21.5918 79.5731 17.5311 85.9146 20.9613C90.8227 23.6162 96.9531 21.8293 99.6661 16.9531C103.171 10.6528 111.932 9.88635 116.478 15.4822C119.997 19.8132 126.344 20.5084 130.717 17.0416C136.366 12.5623 144.754 15.2068 146.812 22.1165C148.405 27.4642 154.004 30.5356 159.37 29.006Z" fill="url(#paint0_linear_1437_5936)"/>
</g>
<defs>
<filter id="filter0_d_1437_5936" x="0.597075" y="0.761726" width="219.615" height="219.615" filterUnits="userSpaceOnUse" color-interpolation-filters="sRGB">
<feFlood flood-opacity="0" result="BackgroundImageFix"/>
<feColorMatrix in="SourceAlpha" type="matrix" values="0 0 0 0 0 0 0 0 0 0 0 0 0 0 0 0 0 0 127 0" result="hardAlpha"/>
<feOffset dx="-4.5648" dy="15.5203"/>
<feGaussianBlur stdDeviation="13.2379"/>
<feComposite in2="hardAlpha" operator="out"/>
<feColorMatrix type="matrix" values="0 0 0 0 0.0775104 0 0 0 0 0.241623 0 0 0 0 0.157958 0 0 0 0.46 0"/>
<feBlend mode="normal" in2="BackgroundImageFix" result="effect1_dropShadow_1437_5936"/>
<feBlend mode="normal" in="SourceGraphic" in2="effect1_dropShadow_1437_5936" result="shape"/>
</filter>
<linearGradient id="paint0_linear_1437_5936" x1="166.996" y1="175.55" x2="55.9078" y2="91.2258" gradientUnits="userSpaceOnUse">
<stop stop-color="#237249"/>
<stop offset="1" stop-color="#35C66B"/>
</linearGradient>
</defs>
</svg>
